<?xml version="1.0" encoding="UTF-8" standalone="no"?>
<!-- Created with Inkscape (http://www.inkscape.org/) -->

<svg
   width="51.6875"
   height="51.561623"
   id="svg3003"
   version="1.1"
   inkscape:version="0.92.1 r15371"
   sodipodi:docname="SocialMediaIcons.svg"
   inkscape:export-filename="/home/nick/Desktop/smip.png"
   inkscape:export-xdpi="90"
   inkscape:export-ydpi="90"
   xmlns:inkscape="http://www.inkscape.org/namespaces/inkscape"
   xmlns:sodipodi="http://sodipodi.sourceforge.net/DTD/sodipodi-0.dtd"
   xmlns="http://www.w3.org/2000/svg"
   xmlns:svg="http://www.w3.org/2000/svg"
   xmlns:rdf="http://www.w3.org/1999/02/22-rdf-syntax-ns#"
   xmlns:cc="http://creativecommons.org/ns#"
   xmlns:dc="http://purl.org/dc/elements/1.1/">
  <defs
     id="defs3005" />
  <sodipodi:namedview
     id="base"
     pagecolor="#ffffff"
     bordercolor="#666666"
     borderopacity="1.0"
     inkscape:pageopacity="0.0"
     inkscape:pageshadow="2"
     inkscape:zoom="1"
     inkscape:cx="344.76328"
     inkscape:cy="24.770765"
     inkscape:document-units="px"
     inkscape:current-layer="layer1"
     showgrid="false"
     showborder="true"
     inkscape:showpageshadow="false"
     inkscape:window-width="1366"
     inkscape:window-height="705"
     inkscape:window-x="-8"
     inkscape:window-y="-8"
     inkscape:window-maximized="1"
     inkscape:object-nodes="false"
     borderlayer="true"
     fit-margin-top="0"
     fit-margin-left="0"
     fit-margin-right="0"
     fit-margin-bottom="0"
     inkscape:pagecheckerboard="0"
     inkscape:deskcolor="#d1d1d1" />
  <metadata
     id="metadata3008">
    <rdf:RDF>
      <cc:Work
         rdf:about="">
        <dc:format>image/svg+xml</dc:format>
        <dc:type
           rdf:resource="http://purl.org/dc/dcmitype/StillImage" />
        <dc:title />
      </cc:Work>
    </rdf:RDF>
  </metadata>
  <g
     inkscape:label="Layer 1"
     inkscape:groupmode="layer"
     id="layer1"
     transform="translate(-712.08825,-129.06846)">
    <path
       style="color:#000000;font-style:normal;font-variant:normal;font-weight:normal;font-stretch:normal;font-size:medium;line-height:normal;font-family:Sans;-inkscape-font-specification:Sans;text-indent:0;text-align:start;text-decoration:none;text-decoration-line:none;letter-spacing:normal;word-spacing:normal;text-transform:none;writing-mode:lr-tb;direction:ltr;baseline-shift:baseline;text-anchor:start;display:inline;overflow:visible;visibility:visible;fill:#4f7df3;fill-opacity:1;stroke:none;stroke-width:37.4;marker:none;enable-background:accumulate"
       d="m 727.04867,129.06846 c -8.25078,0 -14.96042,6.71335 -14.96042,14.96414 v 21.63707 c 0,8.25077 6.70964,14.96041 14.96042,14.96041 h 21.76666 c 8.25078,0 14.96042,-6.70964 14.96042,-14.96041 V 144.0326 c 0,-8.25079 -6.70964,-14.96414 -14.96042,-14.96414 z m 0,4.43262 h 21.76666 c 5.8722,0 10.53155,4.65936 10.53155,10.53152 v 21.63707 c 0,5.87218 -4.65935,10.52783 -10.53155,10.52783 h -21.76666 c -5.8722,0 -10.52784,-4.65565 -10.52784,-10.52783 V 144.0326 c 0,-5.87216 4.65564,-10.53152 10.52784,-10.53152 z m 24.75504,4.43256 c -1.71223,0 -3.09947,1.38724 -3.09947,3.09945 0,1.71228 1.38724,3.0995 3.09947,3.0995 1.71223,0 3.09948,-1.38722 3.09948,-3.0995 0,-1.71221 -1.38725,-3.09945 -3.09948,-3.09945 z m -13.87171,3.64009 c -7.30607,0 -13.27552,5.96949 -13.27552,13.27555 0,7.30607 5.96945,13.27552 13.27552,13.27552 7.30607,0 13.27922,-5.96945 13.27922,-13.27552 0,-7.30606 -5.97315,-13.27555 -13.27922,-13.27555 z m 0,4.43262 c 4.91093,0 8.84664,3.93201 8.84664,8.84293 0,4.91093 -3.93571,8.84294 -8.84664,8.84294 -4.91093,0 -8.84294,-3.93201 -8.84294,-8.84294 0,-4.91092 3.93201,-8.84293 8.84294,-8.84293 z"
       id="rect3687"
       inkscape:connector-curvature="0"
       inkscape:export-filename="C:\Users\MaxTaker\Documents\MEGA\pics\Logos\Instagram-logo-b25517ff.png"
       inkscape:export-xdpi="237.73639"
       inkscape:export-ydpi="237.73639" />
  </g>
</svg>
