<?xml version="1.0" encoding="UTF-8" standalone="no"?>
<!-- Created with Inkscape (http://www.inkscape.org/) -->

<svg
   width="50.791382"
   height="41.274364"
   id="svg3003"
   version="1.1"
   inkscape:version="0.92.1 r15371"
   sodipodi:docname="SocialMediaIcons.svg"
   inkscape:export-filename="/home/nick/Desktop/smip.png"
   inkscape:export-xdpi="90"
   inkscape:export-ydpi="90"
   xmlns:inkscape="http://www.inkscape.org/namespaces/inkscape"
   xmlns:sodipodi="http://sodipodi.sourceforge.net/DTD/sodipodi-0.dtd"
   xmlns="http://www.w3.org/2000/svg"
   xmlns:svg="http://www.w3.org/2000/svg"
   xmlns:rdf="http://www.w3.org/1999/02/22-rdf-syntax-ns#"
   xmlns:cc="http://creativecommons.org/ns#"
   xmlns:dc="http://purl.org/dc/elements/1.1/">
  <defs
     id="defs3005" />
  <sodipodi:namedview
     id="base"
     pagecolor="#ffffff"
     bordercolor="#666666"
     borderopacity="1.0"
     inkscape:pageopacity="0.0"
     inkscape:pageshadow="2"
     inkscape:zoom="1"
     inkscape:cx="344.76328"
     inkscape:cy="24.770765"
     inkscape:document-units="px"
     inkscape:current-layer="layer1"
     showgrid="false"
     showborder="true"
     inkscape:showpageshadow="false"
     inkscape:window-width="1366"
     inkscape:window-height="705"
     inkscape:window-x="-8"
     inkscape:window-y="-8"
     inkscape:window-maximized="1"
     inkscape:object-nodes="false"
     borderlayer="true"
     fit-margin-top="0"
     fit-margin-left="0"
     fit-margin-right="0"
     fit-margin-bottom="0"
     inkscape:pagecheckerboard="0"
     inkscape:deskcolor="#d1d1d1" />
  <metadata
     id="metadata3008">
    <rdf:RDF>
      <cc:Work
         rdf:about="">
        <dc:format>image/svg+xml</dc:format>
        <dc:type
           rdf:resource="http://purl.org/dc/dcmitype/StillImage" />
        <dc:title />
      </cc:Work>
    </rdf:RDF>
  </metadata>
  <g
     inkscape:label="Layer 1"
     inkscape:groupmode="layer"
     id="layer1"
     transform="translate(-625.82943,-138.97051)">
    <path
       style="fill:#4f7df3;fill-opacity:1"
       inkscape:connector-curvature="0"
       id="path22"
       d="m 676.62081,143.85568 c -1.86779,0.8289 -3.87641,1.38913 -5.98386,1.64152 2.15092,-1.29014 3.80247,-3.33205 4.5805,-5.76463 -2.01306,1.19454 -4.24238,2.061 -6.61698,2.52804 -1.89974,-2.02459 -4.60799,-3.2901 -7.60493,-3.2901 -5.75498,0 -10.41945,4.66485 -10.41945,10.41945 0,0.81697 0.0913,1.61246 0.26967,2.37459 -8.66015,-0.43397 -16.33791,-4.58347 -21.47722,-10.88686 -0.89697,1.53823 -1.41075,3.32788 -1.41075,5.23778 0,3.6155 1.83878,6.80424 4.63549,8.67351 -1.708,-0.0534 -3.31492,-0.52232 -4.71983,-1.30332 -0.002,0.0439 -0.002,0.0872 -0.002,0.13078 0,5.0494 3.59216,9.25983 8.35844,10.2177 -0.87359,0.23817 -1.79389,0.36412 -2.74429,0.36412 -0.6721,0 -1.32377,-0.0636 -1.96109,-0.18578 1.32685,4.13947 5.17425,7.15239 9.73468,7.23673 -3.56906,2.79519 -8.06121,4.46012 -12.94341,4.46012 -0.84048,0 -1.67053,-0.0495 -2.48635,-0.14528 4.6132,2.95637 10.08951,4.68082 15.97453,4.68082 19.16542,0 29.64469,-15.87682 29.64469,-29.64729 0,-0.45155 -0.0104,-0.90002 -0.0293,-1.34688 2.03499,-1.47027 3.80135,-3.30496 5.19914,-5.39494"
       inkscape:export-filename="..\..\..\..\..\Desktop\twitter.svg"
       inkscape:export-xdpi="237.73639"
       inkscape:export-ydpi="237.73639" />
  </g>
</svg>
